<?xml version="1.0" encoding="UTF-8" standalone="no"?>
<!-- Created with Inkscape (http://www.inkscape.org/) -->

<svg
   xmlns:svg="http://www.w3.org/2000/svg"
   xmlns="http://www.w3.org/2000/svg"
   version="1.1"
   width="383.21411"
   height="136.8721"
   id="svg2">
  <title
     id="title3702">Buck Circuit Diagram</title>
  <defs
     id="defs6">
    <marker
       refX="0"
       refY="0"
       orient="auto"
       id="TriangleOutM"
       style="overflow:visible">
      <path
         d="m 5.77,0 -8.65,5 0,-10 8.65,5 z"
         transform="scale(0.4,0.4)"
         id="path3870"
         style="fill-rule:evenodd;stroke:#000000;stroke-width:1pt;marker-start:none" />
    </marker>
  </defs>
  <path
     d="m 28.696189,13.997106 0,0.5 0,35.875 c 0.11487,-0.0012 0.228558,0 0.34375,0 0.219913,0 0.437526,-0.0043 0.65625,0 l 0,-35.375 46.625,0 0,-1 -47.125,0 -0.5,0 z m 101.625001,0 c 0.0605,0.258694 0.125,0.504136 0.125,0.78125 0,0.0742 -0.0267,0.145688 -0.0312,0.21875 l 93.3125,0 0,-1 -93.40625,0 z m 179.84375,0 0,1 40.375,0 0,42.4375 1,0 0,-42.9375 0,-0.5 -0.5,0 -40.875,0 z m 40.375,79.125 0,42.750004 -320.843751,0 0,-35.375 c -0.218724,0.004 -0.436337,0 -0.65625,0 -0.115192,0 -0.22888,10e-4 -0.34375,0 l 0,35.875 0,0.5 0.5,0 321.843751,0 0.5,0 0,-0.5 0,-43.250004 -1,0 z"
     id="path3717"
     style="font-size:medium;font-style:normal;font-variant:normal;font-weight:normal;font-stretch:normal;text-indent:0;text-align:start;text-decoration:none;line-height:normal;letter-spacing:normal;word-spacing:normal;text-transform:none;direction:ltr;block-progression:tb;writing-mode:lr-tb;text-anchor:start;color:#000000;fill:#000000;fill-opacity:1;stroke:none;stroke-width:1;marker:none;visibility:visible;display:inline;overflow:visible;enable-background:accumulate;font-family:Bitstream Vera Sans;-inkscape-font-specification:Bitstream Vera Sans" />
  <path
     d="m 190.11806,59.448495 10.76627,17.826405 10.76627,17.826406 -21.53254,0 -21.53253,-10e-7 L 179.3518,77.2749 190.11806,59.448495 z"
     id="path2822"
     style="fill:none;stroke:#000000;stroke-width:1;stroke-miterlimit:4" />
  <path
     d="m 319.23385,57.430578 63.48027,0 0,35.683978 -63.48027,0 0,-35.683978 z"
     id="rect2824"
     style="fill:none;stroke:#000000;stroke-width:1;stroke-miterlimit:4" />
  <path
     d="m 80.965867,14.879629 c 0,2.297671 -1.86263,4.160301 -4.160301,4.160301 -2.29767,0 -4.1603,-1.86263 -4.1603,-4.160301 0,-2.29767 1.86263,-4.1603 4.1603,-4.1603 2.297671,0 4.160301,1.86263 4.160301,4.1603 z"
     id="path2826"
     style="fill:#000000;stroke:none" />
  <path
     d="m 130.43792,14.788193 c 0,1.947289 -1.57859,3.525877 -3.52588,3.525877 -1.94728,0 -3.52588,-1.578588 -3.52588,-3.525877 0,-1.947288 1.5786,-3.525877 3.52588,-3.525877 1.94729,0 3.52588,1.578589 3.52588,3.525877 z"
     id="path2828"
     style="fill:none;stroke:#000000;stroke-width:1;stroke-miterlimit:4" />
  <path
     d="m 234.05672,0 c -3.26728,0 -6.13926,1.753476 -8.1875,4.46875 -2.04824,2.715275 -3.3125,6.414739 -3.3125,10.5 0,0.01062 -2e-5,0.02063 0,0.03125 l 1.125,0 c -2e-5,-0.01044 0,-0.0208 0,-0.03125 0,-3.93465 1.20866,-7.459586 3.125,-10 1.91633,-2.540414 4.46754,-4.0625 7.25,-4.0625 2.78245,0 5.36491,1.522086 7.28125,4.0625 1.85506,2.459197 3.01992,5.841242 3.09375,9.625 -0.002,0.126696 0,0.247557 0,0.375 0,0.01062 3e-5,0.02071 0,0.03125 l 1.125,0 c -3e-5,-0.01057 0,-0.02062 0,-0.03125 0,-0.170145 0.004,-0.331198 0,-0.5 0.0971,-3.733744 1.25903,-7.06778 3.09375,-9.5 1.91633,-2.540414 4.49879,-4.0625 7.28125,-4.0625 2.78245,0 5.33367,1.522086 7.25,4.0625 1.91633,2.540414 3.125,6.06535 3.125,10 0,0.01045 2e-5,0.02081 0,0.03125 l 1.15625,0 c -2e-5,-0.01044 0,-0.0208 0,-0.03125 0,-3.93465 1.17742,-7.459586 3.09375,-10 1.91633,-2.540414 4.4988,-4.0625 7.28125,-4.0625 2.78245,0 5.36492,1.522086 7.28125,4.0625 1.91634,2.540414 3.125,6.06535 3.125,10 0,0.01045 2e-5,0.02081 0,0.03125 l 1.125,0 c -2e-5,-0.01044 0,-0.0208 0,-0.03125 0,-3.93465 1.20866,-7.459586 3.125,-10 1.91633,-2.540414 4.46754,-4.0625 7.25,-4.0625 2.78245,0 5.36492,1.522086 7.28125,4.0625 1.91633,2.540414 3.125,6.06535 3.125,10 0,0.01045 2e-5,0.02081 0,0.03125 l 1.09375,0 c 2e-5,-0.01062 0,-0.02063 0,-0.03125 0,-4.085261 -1.23301,-7.784725 -3.28125,-10.5 C 305.91473,1.753476 303.01149,0 299.74422,0 c -3.26728,0 -6.13926,1.753476 -8.1875,4.46875 -1.25701,1.666369 -2.19936,3.695973 -2.75,5.96875 -0.55064,-2.272777 -1.49299,-4.302381 -2.75,-5.96875 C 284.00848,1.753476 281.10525,0 277.83797,0 c -3.26727,0 -6.13926,1.753476 -8.1875,4.46875 -1.2447,1.650052 -2.19691,3.660229 -2.75,5.90625 C 266.34766,8.125772 265.3654,6.12076 264.11922,4.46875 262.07098,1.753476 259.19899,0 255.93172,0 c -3.26728,0 -6.17051,1.753476 -8.21875,4.46875 -1.23928,1.642872 -2.16463,3.640733 -2.71875,5.875 -0.55412,-2.234267 -1.47947,-4.232128 -2.71875,-5.875 C 240.22723,1.753476 237.32399,0 234.05672,0 z"
     id="path2830"
     style="font-size:medium;font-style:normal;font-variant:normal;font-weight:normal;font-stretch:normal;text-indent:0;text-align:start;text-decoration:none;line-height:normal;letter-spacing:normal;word-spacing:normal;text-transform:none;direction:ltr;block-progression:tb;writing-mode:lr-tb;text-anchor:start;color:#000000;fill:#000000;fill-opacity:1;stroke:none;stroke-width:0.96486473;marker:none;visibility:visible;display:inline;overflow:visible;enable-background:accumulate;font-family:Bitstream Vera Sans;-inkscape-font-specification:Bitstream Vera Sans" />
  <path
     d="m 168.4022,58.448495 43.43173,0"
     id="path3643"
     style="fill:none;stroke:#000000;stroke-width:1px;stroke-linecap:butt;stroke-linejoin:miter;stroke-opacity:1" />
  <path
     d="m 189.60244,14.997106 0,45.3125 0.53125,-0.875 0.46875,0.78125 0,-45.21875 -1,0 z m 0,80.09375 0,40.781254 1,0 0,-40.781254 -0.46875,0 -0.53125,0 z"
     id="path3645"
     style="font-size:medium;font-style:normal;font-variant:normal;font-weight:normal;font-stretch:normal;text-indent:0;text-align:start;text-decoration:none;line-height:normal;letter-spacing:normal;word-spacing:normal;text-transform:none;direction:ltr;block-progression:tb;writing-mode:lr-tb;text-anchor:start;color:#000000;fill:#000000;fill-opacity:1;stroke:none;stroke-width:1px;marker:none;visibility:visible;display:inline;overflow:visible;enable-background:accumulate;font-family:Bitstream Vera Sans;-inkscape-font-specification:Bitstream Vera Sans" />
  <path
     d="m 57.561359,75.434607 c 0,13.838129 -12.773621,25.056143 -28.53068,25.056143 C 13.27362,100.49075 0.5,89.272736 0.5,75.434607 0.5,61.59648 13.27362,50.378462 29.030679,50.378462 c 15.757059,0 28.53068,11.218018 28.53068,25.056145 z"
     id="path2818"
     style="fill:none;stroke:#000000;stroke-width:1;stroke-linecap:butt;stroke-linejoin:miter;stroke-miterlimit:4;stroke-opacity:1" />
  <g
     transform="translate(-8.3663106,-11.065394)"
     id="text3647"
     style="font-size:20px;font-style:normal;font-variant:normal;font-weight:normal;font-stretch:normal;fill:#000000;fill-opacity:1;stroke:none;font-family:Liberation Sans;-inkscape-font-specification:Liberation Sans">
    <path
       d="m 88.130211,87.87207 c -1.3e-5,0.579431 -0.112317,1.113284 -0.336914,1.601563 -0.224621,0.488283 -0.571301,0.909832 -1.040039,1.264648 -0.468761,0.354819 -1.059581,0.631511 -1.772461,0.830078 -0.712899,0.198568 -1.557625,0.297852 -2.53418,0.297852 -1.712244,0 -3.046879,-0.299479 -4.003906,-0.898438 -0.957033,-0.598957 -1.565757,-1.464841 -1.826172,-2.597656 l 1.806641,-0.361328 c 0.09114,0.358076 0.231116,0.683597 0.419922,0.976563 0.188798,0.292971 0.444332,0.545249 0.766601,0.756835 0.322261,0.211591 0.721024,0.375979 1.196289,0.493165 0.475255,0.117188 1.044916,0.175782 1.708985,0.175781 0.553378,10e-7 1.06119,-0.0472 1.523437,-0.141602 0.462231,-0.0944 0.859366,-0.239256 1.191406,-0.43457 0.332022,-0.195311 0.59081,-0.447589 0.776367,-0.756836 0.185537,-0.309242 0.27831,-0.678708 0.278321,-1.108398 -1.1e-5,-0.449215 -0.10255,-0.813798 -0.307617,-1.09375 -0.205089,-0.279943 -0.493174,-0.511063 -0.864258,-0.69336 -0.371103,-0.182286 -0.813811,-0.33528 -1.328125,-0.458984 -0.514331,-0.123692 -1.083992,-0.257155 -1.708985,-0.400391 -0.38412,-0.08463 -0.769862,-0.177402 -1.157226,-0.27832 -0.387375,-0.100905 -0.758468,-0.221347 -1.113281,-0.361328 -0.354822,-0.139967 -0.68848,-0.304355 -1.000977,-0.493164 -0.312503,-0.188795 -0.582685,-0.415031 -0.810547,-0.678711 -0.227867,-0.263664 -0.406903,-0.569653 -0.537109,-0.917969 -0.13021,-0.348298 -0.195314,-0.750316 -0.195313,-1.206055 -10e-7,-0.65103 0.131835,-1.209298 0.395508,-1.674804 0.26367,-0.465483 0.62988,-0.847969 1.098633,-1.147461 0.468746,-0.299466 1.022131,-0.517565 1.660156,-0.654297 0.638016,-0.136705 1.328119,-0.205064 2.070313,-0.205078 0.852857,1.4e-5 1.582023,0.06674 2.1875,0.200195 0.605459,0.133477 1.116526,0.333672 1.533203,0.600586 0.416656,0.26694 0.750314,0.597343 1.000976,0.991211 0.25064,0.393892 0.450835,0.851248 0.600586,1.37207 l -1.835937,0.322266 c -0.09116,-0.332021 -0.222992,-0.628244 -0.395508,-0.888672 -0.172536,-0.260405 -0.398773,-0.478504 -0.678711,-0.654297 -0.279957,-0.175769 -0.620126,-0.309232 -1.020508,-0.400391 -0.400398,-0.09113 -0.870775,-0.136706 -1.411133,-0.136718 -0.638027,1.2e-5 -1.173508,0.05698 -1.606445,0.170898 -0.432947,0.113945 -0.781254,0.268567 -1.044922,0.463867 -0.263676,0.195325 -0.452477,0.424816 -0.566406,0.688477 -0.113936,0.263683 -0.170902,0.548513 -0.170898,0.854492 -4e-6,0.410166 0.102535,0.74708 0.307617,1.010742 0.205074,0.263681 0.483394,0.483408 0.834961,0.65918 0.351557,0.17579 0.758458,0.322274 1.220703,0.439453 0.462233,0.117196 0.953769,0.234383 1.474609,0.351563 0.42317,0.09766 0.844719,0.196947 1.264649,0.297851 0.419913,0.100919 0.82193,0.221362 1.206054,0.361328 0.384105,0.139981 0.743805,0.304369 1.079102,0.493164 0.335275,0.188809 0.626616,0.419929 0.874023,0.69336 0.247384,0.273443 0.441069,0.595708 0.581055,0.966797 0.139962,0.371098 0.209948,0.807296 0.209961,1.308593 z"
       id="path4958" />
    <path
       d="m 92.134117,81.104492 0,6.699219 c -3e-6,0.514326 0.03743,0.944013 0.112305,1.289062 0.07487,0.345055 0.196937,0.623375 0.366211,0.834961 0.169267,0.21159 0.392248,0.36133 0.668945,0.449219 0.276688,0.08789 0.620112,0.131837 1.030274,0.131836 0.416661,1e-6 0.792637,-0.07324 1.127929,-0.219727 0.33528,-0.146482 0.621738,-0.358071 0.859375,-0.634765 0.237623,-0.276691 0.421542,-0.618487 0.551758,-1.025391 0.1302,-0.406897 0.195305,-0.874019 0.195313,-1.401367 l 0,-6.123047 1.757812,0 0,8.310547 c -1e-5,0.221356 0.0016,0.454103 0.0049,0.698242 0.0032,0.244142 0.0081,0.475262 0.01465,0.69336 0.0065,0.218099 0.01301,0.405274 0.01953,0.561523 0.0065,0.15625 0.01301,0.257162 0.01953,0.302734 l -1.660156,0 c -0.0065,-0.03255 -0.01303,-0.120442 -0.01953,-0.263671 -0.0065,-0.143229 -0.01466,-0.307617 -0.02441,-0.493165 -0.0098,-0.185545 -0.01791,-0.374347 -0.02441,-0.566406 -0.0065,-0.192056 -0.0098,-0.353188 -0.0098,-0.483398 l -0.0293,0 c -0.169279,0.305991 -0.354826,0.582683 -0.556641,0.830078 -0.20183,0.247396 -0.436205,0.457357 -0.703125,0.629883 -0.266934,0.172526 -0.572923,0.305989 -0.917969,0.40039 -0.345057,0.0944 -0.745448,0.141602 -1.201172,0.141602 -0.585941,0 -1.090498,-0.07162 -1.513671,-0.214844 -0.42318,-0.143229 -0.771487,-0.364583 -1.044922,-0.664062 -0.27344,-0.299478 -0.473635,-0.683593 -0.600586,-1.152344 -0.126955,-0.468748 -0.190431,-1.031898 -0.19043,-1.689453 l 0,-7.041016 z"
       id="path4960" />
    <path
       d="m 110.48373,86.338867 c -10e-6,0.800786 -0.0651,1.539718 -0.19532,2.216797 -0.13021,0.677086 -0.34669,1.259768 -0.64941,1.748047 -0.30274,0.488282 -0.70313,0.870769 -1.20117,1.147461 -0.49806,0.276693 -1.11166,0.415039 -1.84082,0.415039 -0.75522,0 -1.41602,-0.143229 -1.98242,-0.429688 -0.56641,-0.286457 -0.99936,-0.755207 -1.29883,-1.40625 l -0.0488,0 c 0.007,0.01302 0.0114,0.07162 0.0147,0.175782 0.003,0.104168 0.007,0.234376 0.01,0.390625 0.003,0.156251 0.007,0.330404 0.01,0.522461 0.003,0.192057 0.005,0.382487 0.005,0.571289 l 0,4.130859 -1.75781,0 0,-12.558594 c 0,-0.253897 -0.002,-0.498038 -0.005,-0.732422 -0.003,-0.234365 -0.008,-0.447581 -0.0147,-0.639648 -0.007,-0.192047 -0.013,-0.356435 -0.0195,-0.493164 -0.007,-0.136708 -0.013,-0.234365 -0.0195,-0.292969 l 1.69921,0 c 0.007,0.01954 0.0147,0.0879 0.0244,0.205078 0.01,0.117198 0.0195,0.258799 0.0293,0.424805 0.01,0.166025 0.0195,0.343434 0.0293,0.532227 0.01,0.188811 0.0147,0.367847 0.0147,0.537109 l 0.0391,0 c 0.16276,-0.338533 0.34831,-0.626618 0.55664,-0.864258 0.20833,-0.23762 0.44596,-0.432932 0.71289,-0.585937 0.26693,-0.152985 0.56478,-0.263662 0.89356,-0.332032 0.32877,-0.06835 0.69824,-0.102528 1.1084,-0.102539 0.72916,1.1e-5 1.34276,0.130219 1.84082,0.390625 0.49804,0.260427 0.89843,0.626638 1.20117,1.098633 0.30272,0.472014 0.5192,1.041675 0.64941,1.708984 0.1302,0.667325 0.19531,1.407884 0.19532,2.22168 z m -1.84571,0.03906 c -1e-5,-0.651036 -0.0391,-1.230463 -0.11718,-1.738282 -0.0781,-0.507805 -0.21323,-0.937492 -0.40528,-1.289062 -0.19206,-0.351554 -0.4476,-0.618481 -0.7666,-0.800781 -0.31902,-0.182283 -0.71941,-0.273428 -1.20117,-0.273438 -0.39063,1e-5 -0.75847,0.05535 -1.10352,0.166016 -0.34505,0.110686 -0.64616,0.322274 -0.90332,0.634765 -0.25716,0.312509 -0.46061,0.743823 -0.61035,1.293946 -0.14974,0.550137 -0.22461,1.264654 -0.22461,2.143554 0,0.748703 0.0619,1.38184 0.18555,1.899414 0.12369,0.517581 0.30436,0.935875 0.54199,1.254883 0.23763,0.319012 0.53222,0.548504 0.88379,0.688477 0.35156,0.139975 0.7552,0.209962 1.21094,0.209961 0.48827,10e-7 0.89355,-0.0944 1.21582,-0.283203 0.32226,-0.188801 0.57942,-0.462238 0.77148,-0.820313 0.19205,-0.35807 0.32714,-0.795895 0.40528,-1.313476 0.0781,-0.517574 0.11717,-1.108394 0.11718,-1.772461 z"
       id="path4962" />
    <path
       d="m 121.61654,86.338867 c -1e-5,0.800786 -0.0651,1.539718 -0.19531,2.216797 -0.13022,0.677086 -0.34669,1.259768 -0.64942,1.748047 -0.30274,0.488282 -0.70313,0.870769 -1.20117,1.147461 -0.49805,0.276693 -1.11166,0.415039 -1.84082,0.415039 -0.75521,0 -1.41602,-0.143229 -1.98242,-0.429688 -0.56641,-0.286457 -0.99935,-0.755207 -1.29883,-1.40625 l -0.0488,0 c 0.007,0.01302 0.0114,0.07162 0.0147,0.175782 0.003,0.104168 0.007,0.234376 0.01,0.390625 0.003,0.156251 0.007,0.330404 0.01,0.522461 0.003,0.192057 0.005,0.382487 0.005,0.571289 l 0,4.130859 -1.75781,0 0,-12.558594 c 0,-0.253897 -0.002,-0.498038 -0.005,-0.732422 -0.003,-0.234365 -0.008,-0.447581 -0.0146,-0.639648 -0.007,-0.192047 -0.013,-0.356435 -0.0195,-0.493164 -0.007,-0.136708 -0.013,-0.234365 -0.0195,-0.292969 l 1.69922,0 c 0.007,0.01954 0.0146,0.0879 0.0244,0.205078 0.01,0.117198 0.0195,0.258799 0.0293,0.424805 0.01,0.166025 0.0195,0.343434 0.0293,0.532227 0.01,0.188811 0.0147,0.367847 0.0147,0.537109 l 0.0391,0 c 0.16275,-0.338533 0.3483,-0.626618 0.55664,-0.864258 0.20833,-0.23762 0.44596,-0.432932 0.71289,-0.585937 0.26692,-0.152985 0.56477,-0.263662 0.89355,-0.332032 0.32877,-0.06835 0.69824,-0.102528 1.1084,-0.102539 0.72916,1.1e-5 1.34277,0.130219 1.84082,0.390625 0.49804,0.260427 0.89843,0.626638 1.20117,1.098633 0.30273,0.472014 0.5192,1.041675 0.64942,1.708984 0.13019,0.667325 0.1953,1.407884 0.19531,2.22168 z m -1.8457,0.03906 c -1e-5,-0.651036 -0.0391,-1.230463 -0.11719,-1.738282 -0.0781,-0.507805 -0.21323,-0.937492 -0.40528,-1.289062 -0.19206,-0.351554 -0.44759,-0.618481 -0.7666,-0.800781 -0.31901,-0.182283 -0.7194,-0.273428 -1.20117,-0.273438 -0.39063,1e-5 -0.75847,0.05535 -1.10351,0.166016 -0.34506,0.110686 -0.64617,0.322274 -0.90332,0.634765 -0.25717,0.312509 -0.46062,0.743823 -0.61036,1.293946 -0.14974,0.550137 -0.22461,1.264654 -0.22461,2.143554 0,0.748703 0.0618,1.38184 0.18555,1.899414 0.1237,0.517581 0.30436,0.935875 0.54199,1.254883 0.23763,0.319012 0.53223,0.548504 0.88379,0.688477 0.35156,0.139975 0.75521,0.209962 1.21094,0.209961 0.48828,10e-7 0.89355,-0.0944 1.21582,-0.283203 0.32226,-0.188801 0.57942,-0.462238 0.77148,-0.820313 0.19205,-0.35807 0.32715,-0.795895 0.40528,-1.313476 0.0781,-0.517574 0.11718,-1.108394 0.11719,-1.772461 z"
       id="path4964" />
    <path
       d="m 123.8138,91.670898 0,-14.492187 1.75782,0 0,14.492187 z"
       id="path4966" />
    <path
       d="m 132.81771,91.670898 c -0.2474,0.638021 -0.49968,1.212564 -0.75684,1.723633 -0.25716,0.511066 -0.54525,0.947263 -0.86425,1.308594 -0.31902,0.361325 -0.67383,0.638017 -1.06446,0.830078 -0.39062,0.192053 -0.83984,0.288082 -1.34765,0.288086 -0.22136,-4e-6 -0.42644,-0.0065 -0.61524,-0.01953 -0.1888,-0.01303 -0.38737,-0.04232 -0.5957,-0.08789 l 0,-1.318359 c 0.1237,0.01953 0.26367,0.03418 0.41992,0.04394 0.15625,0.0098 0.28971,0.01465 0.40039,0.01465 0.51432,-3e-6 0.99284,-0.19206 1.43555,-0.576172 0.4427,-0.384117 0.83007,-0.996095 1.16211,-1.835938 l 0.16601,-0.419922 -4.18945,-10.517578 1.875,0 2.22656,5.839844 c 0.0651,0.175786 0.14811,0.410161 0.24903,0.703125 0.1009,0.292972 0.20182,0.585941 0.30273,0.878906 0.10091,0.292972 0.19043,0.556643 0.26856,0.791016 0.0781,0.234377 0.12369,0.380861 0.13672,0.439453 0.0195,-0.07161 0.0667,-0.213214 0.1416,-0.424805 0.0749,-0.211586 0.1595,-0.447588 0.2539,-0.708008 0.0944,-0.260413 0.19043,-0.524085 0.28809,-0.791015 0.0977,-0.266923 0.17903,-0.498043 0.24414,-0.69336 l 2.07031,-6.035156 1.85547,0 z"
       id="path4968" />
  </g>
  <g
     transform="translate(-8.3663106,-11.065394)"
     id="text3651"
     style="font-size:20px;font-style:normal;font-variant:normal;font-weight:normal;font-stretch:normal;fill:#000000;fill-opacity:1;stroke:none;font-family:Liberation Sans;-inkscape-font-specification:Liberation Sans">
    <path
       d="m 338.5444,93.486397 0,-13.759766 1.86524,0 0,12.236328 6.95312,0 0,1.523438 z"
       id="path4949" />
    <path
       d="m 358.31979,88.193428 c -1e-5,1.848962 -0.40691,3.225914 -1.2207,4.130859 -0.81381,0.904949 -1.99545,1.357422 -3.54492,1.357422 -0.73568,0 -1.39323,-0.110677 -1.97266,-0.332031 -0.57943,-0.221354 -1.06934,-0.559895 -1.46972,-1.015625 -0.4004,-0.455728 -0.70639,-1.027016 -0.91797,-1.713867 -0.21159,-0.686846 -0.31739,-1.495764 -0.31739,-2.426758 0,-3.645824 1.57878,-5.468739 4.73633,-5.46875 0.82031,1.1e-5 1.52832,0.113943 2.12403,0.341797 0.59569,0.227875 1.08397,0.569671 1.46484,1.025391 0.38085,0.455738 0.66242,1.025399 0.84473,1.708984 0.18228,0.683601 0.27342,1.481126 0.27343,2.392578 z m -1.8457,0 c -10e-6,-0.820306 -0.0635,-1.497389 -0.19043,-2.03125 -0.12696,-0.533846 -0.31251,-0.960278 -0.55664,-1.279297 -0.24415,-0.319001 -0.542,-0.541983 -0.89355,-0.668945 -0.35157,-0.126944 -0.74871,-0.19042 -1.19141,-0.19043 -0.44922,1e-5 -0.8545,0.06674 -1.21582,0.200195 -0.36133,0.133473 -0.66895,0.361338 -0.92285,0.683594 -0.25391,0.322274 -0.4476,0.750334 -0.58106,1.28418 -0.13346,0.533861 -0.2002,1.201178 -0.20019,2.001953 -1e-5,0.820317 0.0716,1.499027 0.21484,2.036133 0.14323,0.537112 0.34017,0.965171 0.59082,1.28418 0.25065,0.319012 0.54687,0.543621 0.88867,0.673828 0.3418,0.130209 0.71452,0.195313 1.11817,0.195312 0.44921,10e-7 0.85611,-0.06347 1.2207,-0.19043 0.36458,-0.126951 0.67382,-0.349933 0.92773,-0.668945 0.2539,-0.319008 0.44922,-0.748695 0.58594,-1.289062 0.13671,-0.540361 0.20507,-1.220699 0.20508,-2.041016 z"
       id="path4951" />
    <path
       d="m 363.21237,93.681709 c -1.0612,0 -1.85872,-0.279948 -2.39258,-0.839843 -0.53385,-0.559895 -0.80078,-1.328123 -0.80078,-2.304688 0,-0.696611 0.13184,-1.267899 0.39551,-1.713867 0.26367,-0.445959 0.60872,-0.795893 1.03516,-1.049805 0.42643,-0.2539 0.91308,-0.429681 1.45996,-0.527344 0.54687,-0.09765 1.10351,-0.152988 1.66992,-0.166015 l 2.37305,-0.03906 0,-0.576172 c -10e-6,-0.43619 -0.0456,-0.807283 -0.13672,-1.113281 -0.0912,-0.305981 -0.23113,-0.553377 -0.41992,-0.742187 -0.18881,-0.188793 -0.42482,-0.32714 -0.70801,-0.415039 -0.28321,-0.08788 -0.61687,-0.131827 -1.00098,-0.131836 -0.33855,9e-6 -0.64453,0.02442 -0.91797,0.07324 -0.27344,0.04884 -0.51107,0.136728 -0.71289,0.263672 -0.20182,0.126962 -0.36459,0.299488 -0.48828,0.517578 -0.1237,0.218107 -0.20508,0.493172 -0.24414,0.825195 l -1.83594,-0.166015 c 0.0651,-0.416659 0.1888,-0.799145 0.3711,-1.147461 0.18229,-0.348298 0.44107,-0.649405 0.77636,-0.903321 0.33529,-0.253896 0.75521,-0.450836 1.25977,-0.59082 0.50455,-0.139963 1.1149,-0.20995 1.83105,-0.209961 1.32812,1.1e-5 2.32747,0.304372 2.99805,0.913086 0.67056,0.608733 1.00585,1.489266 1.00586,2.641602 l 0,4.550781 c -10e-6,0.520835 0.0684,0.913087 0.20508,1.176758 0.13671,0.263673 0.39712,0.395508 0.78125,0.395507 0.0976,10e-7 0.1953,-0.0065 0.29297,-0.01953 0.0976,-0.01302 0.19204,-0.0293 0.2832,-0.04883 l 0,1.09375 c -0.22137,0.05208 -0.44109,0.09115 -0.65918,0.117188 -0.21811,0.02604 -0.45086,0.03906 -0.69824,0.03906 -0.33204,0 -0.61687,-0.04394 -0.85449,-0.131836 -0.23764,-0.08789 -0.43133,-0.221354 -0.58106,-0.400391 -0.14975,-0.179035 -0.26368,-0.400389 -0.3418,-0.664062 -0.0781,-0.263671 -0.12696,-0.571287 -0.14648,-0.922852 l -0.0586,0 c -0.18881,0.338544 -0.39552,0.644533 -0.62012,0.917969 -0.22462,0.273438 -0.48666,0.506186 -0.78613,0.698242 -0.29949,0.192058 -0.63966,0.34017 -1.02051,0.444336 -0.38087,0.104167 -0.81869,0.15625 -1.31348,0.15625 z m 0.40039,-1.318359 c 0.55989,10e-7 1.0498,-0.102538 1.46973,-0.307617 0.41991,-0.205077 0.76822,-0.467121 1.04492,-0.786133 0.27669,-0.319008 0.48339,-0.667315 0.62012,-1.044922 0.13671,-0.3776 0.20507,-0.738928 0.20508,-1.083984 l 0,-0.869141 -1.92383,0.03906 c -0.42969,0.0065 -0.83822,0.03744 -1.22559,0.09277 -0.38737,0.05534 -0.72754,0.164393 -1.02051,0.327148 -0.29297,0.162765 -0.52571,0.39063 -0.69824,0.683594 -0.17253,0.292973 -0.25879,0.677087 -0.25879,1.152344 0,0.572919 0.15462,1.015627 0.46387,1.328125 0.30924,0.312501 0.75032,0.468751 1.32324,0.46875 z"
       id="path4953" />
    <path
       d="m 378.31979,91.787178 c -0.32552,0.677084 -0.75684,1.16211 -1.29394,1.455078 -0.53712,0.292969 -1.20281,0.439453 -1.99707,0.439453 -1.33464,0 -2.31609,-0.449218 -2.94434,-1.347656 -0.62825,-0.898435 -0.94238,-2.259111 -0.94238,-4.082031 0,-3.684887 1.29557,-5.527333 3.88672,-5.527344 0.80077,1.1e-5 1.46809,0.146495 2.00195,0.439453 0.53385,0.292979 0.96354,0.758473 1.28906,1.396485 l 0.0195,0 c 0,-0.0651 -0.002,-0.167635 -0.005,-0.307618 -0.003,-0.139964 -0.007,-0.286448 -0.01,-0.439453 -0.003,-0.152985 -0.005,-0.297841 -0.005,-0.43457 0,-0.136709 0,-0.234365 0,-0.292969 l 0,-4.091797 1.75782,0 0,12.314453 c -1e-5,0.253909 0.002,0.498049 0.005,0.732422 0.003,0.234377 0.008,0.44922 0.0147,0.644532 0.006,0.195313 0.013,0.362956 0.0195,0.502929 0.007,0.139974 0.013,0.239258 0.0195,0.297852 l -1.67969,0 c -0.013,-0.0651 -0.0244,-0.157878 -0.0342,-0.278321 -0.01,-0.120442 -0.0195,-0.258788 -0.0293,-0.415039 -0.01,-0.156249 -0.0179,-0.320637 -0.0244,-0.493164 -0.007,-0.172524 -0.01,-0.343423 -0.01,-0.512695 z m -5.33203,-3.59375 c 0,0.729171 0.0456,1.354171 0.13672,1.875 0.0911,0.520836 0.23763,0.948896 0.43945,1.28418 0.20182,0.335288 0.45898,0.581056 0.77149,0.737304 0.31249,0.156252 0.69335,0.234377 1.14258,0.234375 0.46223,2e-6 0.87076,-0.07487 1.22558,-0.224609 0.35481,-0.149738 0.65104,-0.392251 0.88867,-0.727539 0.23763,-0.335284 0.41829,-0.773109 0.542,-1.313477 0.12369,-0.54036 0.18554,-1.201167 0.18554,-1.982421 0,-0.748692 -0.0618,-1.38183 -0.18554,-1.899415 -0.12371,-0.51757 -0.306,-0.935864 -0.54688,-1.254882 -0.24089,-0.319002 -0.53549,-0.548494 -0.88379,-0.688477 -0.34831,-0.139964 -0.75033,-0.209951 -1.20605,-0.209961 -0.42969,1e-5 -0.80079,0.07488 -1.11328,0.22461 -0.31251,0.149748 -0.57292,0.390633 -0.78125,0.722656 -0.20834,0.332039 -0.36296,0.763354 -0.46387,1.293945 -0.10091,0.530606 -0.15137,1.173509 -0.15137,1.928711 z"
       id="path4955" />
  </g>
  <path
     d="M 76.759847,14.2853 117.80021,37.979962"
     id="path3719"
     style="fill:none;stroke:#000000;stroke-width:1px;stroke-linecap:butt;stroke-linejoin:miter;stroke-opacity:1;marker-end:url(#TriangleOutM)" />
</svg>
